<svg width="25" height="25" viewBox="0 0 25 25" fill="none" xmlns="http://www.w3.org/2000/svg">
<g id="play-circle">
<path id="Vector" d="M13.4677 10.8417C14.1397 11.3887 14.4757 11.6627 14.4757 12.1317C14.4757 12.6007 14.1397 12.8747 13.4677 13.4217C13.2827 13.5737 13.0977 13.7167 12.9297 13.8347C12.7698 13.9459 12.6064 14.0519 12.4397 14.1527C11.7697 14.5597 11.4337 14.7637 11.1337 14.5377C10.8337 14.3127 10.8057 13.8407 10.7507 12.8957C10.7352 12.6413 10.7269 12.3865 10.7257 12.1317C10.7257 11.8967 10.7357 11.6347 10.7507 11.3677C10.8057 10.4227 10.8327 9.95066 11.1337 9.72466C11.4337 9.49966 11.7697 9.70366 12.4397 10.1107C12.6137 10.2167 12.7807 10.3247 12.9297 10.4287C13.0987 10.5467 13.2827 10.6897 13.4677 10.8407V10.8417Z" stroke="black" stroke-width="1.5" stroke-linecap="round" stroke-linejoin="round"/>
<path id="Vector_2" d="M12.2257 21.1317C17.1963 21.1317 21.2257 17.1022 21.2257 12.1317C21.2257 7.1611 17.1963 3.13166 12.2257 3.13166C7.25515 3.13166 3.22571 7.1611 3.22571 12.1317C3.22571 17.1022 7.25515 21.1317 12.2257 21.1317Z" stroke="black" stroke-width="1.5" stroke-linecap="round" stroke-linejoin="round"/>
</g>
</svg>
